<mxfile host="app.diagrams.net" modified="2024-05-04T11:56:47.617Z" agent="Mozilla/5.0 (Windows NT 10.0; Win64; x64) AppleWebKit/537.36 (KHTML, like Gecko) Chrome/124.0.0.0 Safari/537.36" etag="IJk8UX5QcZzXsFJmxuzM" version="24.3.1" type="google">
  <diagram name="Page-1" id="XKFZ_Cu3VDf8sGqsoxMV">
    <mxGraphModel grid="1" page="1" gridSize="10" guides="1" tooltips="1" connect="1" arrows="1" fold="1" pageScale="1" pageWidth="850" pageHeight="1100" math="0" shadow="0">
      <root>
        <mxCell id="0" />
        <mxCell id="1" parent="0" />
        <mxCell id="enREK_TlI7H8qrPFOVnD-1" value="Principal" style="swimlane;fontStyle=1;align=center;verticalAlign=top;childLayout=stackLayout;horizontal=1;startSize=26;horizontalStack=0;resizeParent=1;resizeParentMax=0;resizeLast=0;collapsible=1;marginBottom=0;whiteSpace=wrap;html=1;" vertex="1" parent="1">
          <mxGeometry x="130" y="297" width="160" height="60" as="geometry" />
        </mxCell>
        <mxCell id="enREK_TlI7H8qrPFOVnD-2" value="" style="line;strokeWidth=1;fillColor=none;align=left;verticalAlign=middle;spacingTop=-1;spacingLeft=3;spacingRight=3;rotatable=0;labelPosition=right;points=[];portConstraint=eastwest;strokeColor=inherit;" vertex="1" parent="enREK_TlI7H8qrPFOVnD-1">
          <mxGeometry y="26" width="160" height="8" as="geometry" />
        </mxCell>
        <mxCell id="enREK_TlI7H8qrPFOVnD-3" value="&lt;u&gt;+ main(String[] args): void&lt;/u&gt;" style="text;strokeColor=none;fillColor=none;align=left;verticalAlign=top;spacingLeft=4;spacingRight=4;overflow=hidden;rotatable=0;points=[[0,0.5],[1,0.5]];portConstraint=eastwest;whiteSpace=wrap;html=1;" vertex="1" parent="enREK_TlI7H8qrPFOVnD-1">
          <mxGeometry y="34" width="160" height="26" as="geometry" />
        </mxCell>
        <mxCell id="q2CsNEJn-uZk5zSm3FEL-1" value="" style="endArrow=open;endSize=12;dashed=1;html=1;rounded=0;entryX=0;entryY=0.5;entryDx=0;entryDy=0;" edge="1" parent="1" source="enREK_TlI7H8qrPFOVnD-1">
          <mxGeometry width="160" relative="1" as="geometry">
            <mxPoint x="423" y="131" as="sourcePoint" />
            <mxPoint x="350" y="330" as="targetPoint" />
          </mxGeometry>
        </mxCell>
        <mxCell id="q2CsNEJn-uZk5zSm3FEL-4" value="Pessoa" style="swimlane;fontStyle=0;align=center;verticalAlign=top;childLayout=stackLayout;horizontal=1;startSize=26;horizontalStack=0;resizeParent=1;resizeLast=0;collapsible=1;marginBottom=0;rounded=0;shadow=0;strokeWidth=1;" vertex="1" parent="1">
          <mxGeometry x="181.25" y="680" width="152.5" height="170" as="geometry">
            <mxRectangle x="230" y="140" width="160" height="26" as="alternateBounds" />
          </mxGeometry>
        </mxCell>
        <mxCell id="QooIZez4wCZtykO-jbme-1" value="&lt;span style=&quot;&quot;&gt;- id: int&lt;/span&gt;" style="text;html=1;align=left;verticalAlign=middle;whiteSpace=wrap;rounded=0;" vertex="1" parent="q2CsNEJn-uZk5zSm3FEL-4">
          <mxGeometry y="26" width="152.5" height="14" as="geometry" />
        </mxCell>
        <mxCell id="mx12emGFuMttaRF26NnB-28" value="&lt;span style=&quot;color: rgb(0, 0, 0); font-family: Helvetica; font-size: 12px; font-style: normal; font-variant-ligatures: normal; font-variant-caps: normal; font-weight: 400; letter-spacing: normal; orphans: 2; text-align: left; text-indent: 0px; text-transform: none; widows: 2; word-spacing: 0px; -webkit-text-stroke-width: 0px; white-space: normal; background-color: rgb(251, 251, 251); text-decoration-thickness: initial; text-decoration-style: initial; text-decoration-color: initial; display: inline !important; float: none;&quot;&gt;- nome: String&lt;/span&gt;" style="text;whiteSpace=wrap;html=1;" vertex="1" parent="q2CsNEJn-uZk5zSm3FEL-4">
          <mxGeometry y="40" width="152.5" height="20" as="geometry" />
        </mxCell>
        <mxCell id="2k-iUdD0pXo5w5RhXO2A-6" value="&lt;span style=&quot;color: rgb(0, 0, 0); font-family: Helvetica; font-size: 12px; font-style: normal; font-variant-ligatures: normal; font-variant-caps: normal; font-weight: 400; letter-spacing: normal; orphans: 2; text-align: left; text-indent: 0px; text-transform: none; widows: 2; word-spacing: 0px; -webkit-text-stroke-width: 0px; white-space: normal; background-color: rgb(251, 251, 251); text-decoration-thickness: initial; text-decoration-style: initial; text-decoration-color: initial; display: inline !important; float: none;&quot;&gt;- idade: int&lt;/span&gt;" style="text;whiteSpace=wrap;html=1;" vertex="1" parent="q2CsNEJn-uZk5zSm3FEL-4">
          <mxGeometry y="60" width="152.5" height="20" as="geometry" />
        </mxCell>
        <mxCell id="q2CsNEJn-uZk5zSm3FEL-7" value="" style="line;html=1;strokeWidth=1;align=left;verticalAlign=middle;spacingTop=-1;spacingLeft=3;spacingRight=3;rotatable=0;labelPosition=right;points=[];portConstraint=eastwest;" vertex="1" parent="q2CsNEJn-uZk5zSm3FEL-4">
          <mxGeometry y="80" width="152.5" height="18" as="geometry" />
        </mxCell>
        <mxCell id="q2CsNEJn-uZk5zSm3FEL-17" value="+ Pessoa()" style="text;html=1;align=left;verticalAlign=middle;whiteSpace=wrap;rounded=0;" vertex="1" parent="q2CsNEJn-uZk5zSm3FEL-4">
          <mxGeometry y="98" width="152.5" height="12" as="geometry" />
        </mxCell>
        <mxCell id="q2CsNEJn-uZk5zSm3FEL-19" value="+ Pessoa(int,String,int)" style="text;html=1;align=left;verticalAlign=middle;whiteSpace=wrap;rounded=0;" vertex="1" parent="q2CsNEJn-uZk5zSm3FEL-4">
          <mxGeometry y="110" width="152.5" height="20" as="geometry" />
        </mxCell>
        <mxCell id="2k-iUdD0pXo5w5RhXO2A-27" value="+ toString(): String" style="text;html=1;align=left;verticalAlign=middle;whiteSpace=wrap;rounded=0;" vertex="1" parent="q2CsNEJn-uZk5zSm3FEL-4">
          <mxGeometry y="130" width="152.5" height="20" as="geometry" />
        </mxCell>
        <mxCell id="q2CsNEJn-uZk5zSm3FEL-22" value="&lt;span style=&quot;text-align: left;&quot;&gt;+ Get&#39;s e Set&#39;s&lt;/span&gt;" style="text;html=1;align=left;verticalAlign=middle;whiteSpace=wrap;rounded=0;" vertex="1" parent="q2CsNEJn-uZk5zSm3FEL-4">
          <mxGeometry y="150" width="152.5" height="20" as="geometry" />
        </mxCell>
        <mxCell id="t3YhmGqD62jpCfQVTjOp-2" value="AlunoDAO" style="swimlane;fontStyle=0;align=center;verticalAlign=top;childLayout=stackLayout;horizontal=1;startSize=26;horizontalStack=0;resizeParent=1;resizeLast=0;collapsible=1;marginBottom=0;rounded=0;shadow=0;strokeWidth=1;" vertex="1" parent="1">
          <mxGeometry x="570" y="1108" width="240" height="120" as="geometry">
            <mxRectangle x="230" y="140" width="160" height="26" as="alternateBounds" />
          </mxGeometry>
        </mxCell>
        <mxCell id="t3YhmGqD62jpCfQVTjOp-7" value="&lt;u&gt;-alunos: ArrayList&amp;lt;Aluno&amp;gt;&lt;/u&gt;" style="whiteSpace=wrap;html=1;align=left;" vertex="1" parent="t3YhmGqD62jpCfQVTjOp-2">
          <mxGeometry y="26" width="240" height="24" as="geometry" />
        </mxCell>
        <mxCell id="2k-iUdD0pXo5w5RhXO2A-22" value="&lt;u&gt;+getMinhaLista():ArrayList&amp;lt;Aluno&amp;gt;&lt;/u&gt;" style="text;strokeColor=none;fillColor=none;align=left;verticalAlign=top;spacingLeft=4;spacingRight=4;overflow=hidden;rotatable=0;points=[[0,0.5],[1,0.5]];portConstraint=eastwest;whiteSpace=wrap;html=1;" vertex="1" parent="t3YhmGqD62jpCfQVTjOp-2">
          <mxGeometry y="50" width="240" height="20" as="geometry" />
        </mxCell>
        <mxCell id="2k-iUdD0pXo5w5RhXO2A-23" value="&lt;u&gt;+setMinhaLista(ArrayList&amp;lt;Aluno&amp;gt;): void&lt;/u&gt;" style="text;strokeColor=none;fillColor=none;align=left;verticalAlign=top;spacingLeft=4;spacingRight=4;overflow=hidden;rotatable=0;points=[[0,0.5],[1,0.5]];portConstraint=eastwest;whiteSpace=wrap;html=1;" vertex="1" parent="t3YhmGqD62jpCfQVTjOp-2">
          <mxGeometry y="70" width="240" height="20" as="geometry" />
        </mxCell>
        <mxCell id="2k-iUdD0pXo5w5RhXO2A-24" value="&lt;u&gt;+maiorID(): int&lt;/u&gt;" style="text;strokeColor=none;fillColor=none;align=left;verticalAlign=top;spacingLeft=4;spacingRight=4;overflow=hidden;rotatable=0;points=[[0,0.5],[1,0.5]];portConstraint=eastwest;whiteSpace=wrap;html=1;" vertex="1" parent="t3YhmGqD62jpCfQVTjOp-2">
          <mxGeometry y="90" width="240" height="20" as="geometry" />
        </mxCell>
        <mxCell id="mx12emGFuMttaRF26NnB-2" value="Aluno" style="swimlane;fontStyle=1;align=center;verticalAlign=top;childLayout=stackLayout;horizontal=1;startSize=26;horizontalStack=0;resizeParent=1;resizeParentMax=0;resizeLast=0;collapsible=1;marginBottom=0;whiteSpace=wrap;html=1;" vertex="1" parent="1">
          <mxGeometry x="107.5" y="918" width="300" height="300" as="geometry" />
        </mxCell>
        <mxCell id="mx12emGFuMttaRF26NnB-3" value="- curso: String" style="text;strokeColor=none;fillColor=none;align=left;verticalAlign=top;spacingLeft=4;spacingRight=4;overflow=hidden;rotatable=0;points=[[0,0.5],[1,0.5]];portConstraint=eastwest;whiteSpace=wrap;html=1;" vertex="1" parent="mx12emGFuMttaRF26NnB-2">
          <mxGeometry y="26" width="300" height="24" as="geometry" />
        </mxCell>
        <mxCell id="mx12emGFuMttaRF26NnB-17" value="&lt;div style=&quot;forced-color-adjust: none; color: rgb(0, 0, 0); font-family: Helvetica; font-size: 12px; font-style: normal; font-variant-ligatures: normal; font-variant-caps: normal; font-weight: 400; letter-spacing: normal; orphans: 2; text-align: left; text-indent: 0px; text-transform: none; widows: 2; word-spacing: 0px; -webkit-text-stroke-width: 0px; white-space: normal; background-color: rgb(251, 251, 251); text-decoration-thickness: initial; text-decoration-style: initial; text-decoration-color: initial;&quot;&gt;&amp;nbsp;- fase: int&lt;/div&gt;" style="text;whiteSpace=wrap;html=1;" vertex="1" parent="mx12emGFuMttaRF26NnB-2">
          <mxGeometry y="50" width="300" height="20" as="geometry" />
        </mxCell>
        <mxCell id="mx12emGFuMttaRF26NnB-4" value="" style="line;strokeWidth=1;fillColor=none;align=left;verticalAlign=middle;spacingTop=-1;spacingLeft=3;spacingRight=3;rotatable=0;labelPosition=right;points=[];portConstraint=eastwest;strokeColor=inherit;" vertex="1" parent="mx12emGFuMttaRF26NnB-2">
          <mxGeometry y="70" width="300" height="8" as="geometry" />
        </mxCell>
        <mxCell id="mx12emGFuMttaRF26NnB-5" value="+ Aluno()" style="text;strokeColor=none;fillColor=none;align=left;verticalAlign=top;spacingLeft=4;spacingRight=4;overflow=hidden;rotatable=0;points=[[0,0.5],[1,0.5]];portConstraint=eastwest;whiteSpace=wrap;html=1;" vertex="1" parent="mx12emGFuMttaRF26NnB-2">
          <mxGeometry y="78" width="300" height="22" as="geometry" />
        </mxCell>
        <mxCell id="mx12emGFuMttaRF26NnB-9" value="&lt;div&gt;+ Aluno(int, String, int, String, int)&lt;/div&gt;" style="text;strokeColor=none;fillColor=none;align=left;verticalAlign=top;spacingLeft=4;spacingRight=4;overflow=hidden;rotatable=0;points=[[0,0.5],[1,0.5]];portConstraint=eastwest;whiteSpace=wrap;html=1;" vertex="1" parent="mx12emGFuMttaRF26NnB-2">
          <mxGeometry y="100" width="300" height="20" as="geometry" />
        </mxCell>
        <mxCell id="mx12emGFuMttaRF26NnB-12" value="+ toString(): String" style="text;strokeColor=none;fillColor=none;align=left;verticalAlign=top;spacingLeft=4;spacingRight=4;overflow=hidden;rotatable=0;points=[[0,0.5],[1,0.5]];portConstraint=eastwest;whiteSpace=wrap;html=1;" vertex="1" parent="mx12emGFuMttaRF26NnB-2">
          <mxGeometry y="120" width="300" height="20" as="geometry" />
        </mxCell>
        <mxCell id="mx12emGFuMttaRF26NnB-14" value="&lt;div&gt;+&amp;nbsp;&lt;span style=&quot;background-color: initial;&quot;&gt;getMinhaLista():&amp;nbsp;&lt;/span&gt;&lt;span style=&quot;background-color: initial;&quot;&gt;ArrayList&amp;lt;Aluno&amp;gt;&lt;/span&gt;&lt;/div&gt;" style="text;strokeColor=none;fillColor=none;align=left;verticalAlign=top;spacingLeft=4;spacingRight=4;overflow=hidden;rotatable=0;points=[[0,0.5],[1,0.5]];portConstraint=eastwest;whiteSpace=wrap;html=1;" vertex="1" parent="mx12emGFuMttaRF26NnB-2">
          <mxGeometry y="140" width="300" height="20" as="geometry" />
        </mxCell>
        <mxCell id="mx12emGFuMttaRF26NnB-16" value="&lt;div&gt;+&amp;nbsp;&lt;span style=&quot;background-color: initial;&quot;&gt;insertAlunoBD(String, int, String , int): boolean&lt;/span&gt;&lt;/div&gt;" style="text;strokeColor=none;fillColor=none;align=left;verticalAlign=top;spacingLeft=4;spacingRight=4;overflow=hidden;rotatable=0;points=[[0,0.5],[1,0.5]];portConstraint=eastwest;whiteSpace=wrap;html=1;" vertex="1" parent="mx12emGFuMttaRF26NnB-2">
          <mxGeometry y="160" width="300" height="20" as="geometry" />
        </mxCell>
        <mxCell id="mx12emGFuMttaRF26NnB-19" value="&lt;div&gt;+&amp;nbsp;&lt;span style=&quot;background-color: initial;&quot;&gt;deleteAlunoBD(int): boolean&amp;nbsp;&lt;/span&gt;&lt;/div&gt;" style="text;strokeColor=none;fillColor=none;align=left;verticalAlign=top;spacingLeft=4;spacingRight=4;overflow=hidden;rotatable=0;points=[[0,0.5],[1,0.5]];portConstraint=eastwest;whiteSpace=wrap;html=1;" vertex="1" parent="mx12emGFuMttaRF26NnB-2">
          <mxGeometry y="180" width="300" height="20" as="geometry" />
        </mxCell>
        <mxCell id="mx12emGFuMttaRF26NnB-20" value="&lt;div&gt;+&amp;nbsp;&lt;span style=&quot;background-color: initial;&quot;&gt;updateAlunoBD(int, String, int, String, int): boolean&amp;nbsp;&lt;/span&gt;&lt;/div&gt;" style="text;strokeColor=none;fillColor=none;align=left;verticalAlign=top;spacingLeft=4;spacingRight=4;overflow=hidden;rotatable=0;points=[[0,0.5],[1,0.5]];portConstraint=eastwest;whiteSpace=wrap;html=1;" vertex="1" parent="mx12emGFuMttaRF26NnB-2">
          <mxGeometry y="200" width="300" height="20" as="geometry" />
        </mxCell>
        <mxCell id="mx12emGFuMttaRF26NnB-22" value="&lt;div&gt;+&amp;nbsp;&lt;span style=&quot;background-color: initial;&quot;&gt;procuraIndice(int): int&lt;/span&gt;&lt;/div&gt;" style="text;strokeColor=none;fillColor=none;align=left;verticalAlign=top;spacingLeft=4;spacingRight=4;overflow=hidden;rotatable=0;points=[[0,0.5],[1,0.5]];portConstraint=eastwest;whiteSpace=wrap;html=1;" vertex="1" parent="mx12emGFuMttaRF26NnB-2">
          <mxGeometry y="220" width="300" height="20" as="geometry" />
        </mxCell>
        <mxCell id="mx12emGFuMttaRF26NnB-24" value="&lt;div&gt;+&amp;nbsp;&lt;span style=&quot;background-color: initial;&quot;&gt;carregaAluno(int): Aluno&lt;/span&gt;&lt;/div&gt;" style="text;strokeColor=none;fillColor=none;align=left;verticalAlign=top;spacingLeft=4;spacingRight=4;overflow=hidden;rotatable=0;points=[[0,0.5],[1,0.5]];portConstraint=eastwest;whiteSpace=wrap;html=1;" vertex="1" parent="mx12emGFuMttaRF26NnB-2">
          <mxGeometry y="240" width="300" height="20" as="geometry" />
        </mxCell>
        <mxCell id="mx12emGFuMttaRF26NnB-26" value="&lt;div&gt;+&amp;nbsp;&lt;span style=&quot;background-color: initial;&quot;&gt;maiorID(): int&lt;/span&gt;&lt;/div&gt;" style="text;strokeColor=none;fillColor=none;align=left;verticalAlign=top;spacingLeft=4;spacingRight=4;overflow=hidden;rotatable=0;points=[[0,0.5],[1,0.5]];portConstraint=eastwest;whiteSpace=wrap;html=1;" vertex="1" parent="mx12emGFuMttaRF26NnB-2">
          <mxGeometry y="260" width="300" height="20" as="geometry" />
        </mxCell>
        <mxCell id="mx12emGFuMttaRF26NnB-10" value="&lt;div&gt;+ Get&#39;s e Set&#39;s&lt;/div&gt;" style="text;strokeColor=none;fillColor=none;align=left;verticalAlign=top;spacingLeft=4;spacingRight=4;overflow=hidden;rotatable=0;points=[[0,0.5],[1,0.5]];portConstraint=eastwest;whiteSpace=wrap;html=1;" vertex="1" parent="mx12emGFuMttaRF26NnB-2">
          <mxGeometry y="280" width="300" height="20" as="geometry" />
        </mxCell>
        <mxCell id="mx12emGFuMttaRF26NnB-7" value="" style="endArrow=block;endSize=16;endFill=0;html=1;rounded=0;exitX=0.5;exitY=0;exitDx=0;exitDy=0;entryX=0.5;entryY=1;entryDx=0;entryDy=0;" edge="1" parent="1" source="mx12emGFuMttaRF26NnB-2" target="q2CsNEJn-uZk5zSm3FEL-4">
          <mxGeometry x="0.25" y="-150" width="160" relative="1" as="geometry">
            <mxPoint x="347.5" y="680" as="sourcePoint" />
            <mxPoint x="227.5" y="860" as="targetPoint" />
            <Array as="points" />
            <mxPoint as="offset" />
          </mxGeometry>
        </mxCell>
        <mxCell id="HsIJHGmiZWipwO8VZicZ-1" value="FrmCadastroAluno" style="swimlane;fontStyle=0;align=center;verticalAlign=top;childLayout=stackLayout;horizontal=1;startSize=26;horizontalStack=0;resizeParent=1;resizeLast=0;collapsible=1;marginBottom=0;rounded=0;shadow=0;strokeWidth=1;" vertex="1" parent="1">
          <mxGeometry x="820" y="560" width="380" height="310" as="geometry">
            <mxRectangle x="230" y="140" width="160" height="26" as="alternateBounds" />
          </mxGeometry>
        </mxCell>
        <mxCell id="HsIJHGmiZWipwO8VZicZ-7" value="- JBCadastrar:javax.swing.JButton" style="text;html=1;align=left;verticalAlign=middle;whiteSpace=wrap;rounded=0;" vertex="1" parent="HsIJHGmiZWipwO8VZicZ-1">
          <mxGeometry y="26" width="380" height="24" as="geometry" />
        </mxCell>
        <mxCell id="HsIJHGmiZWipwO8VZicZ-16" value="- JBCancelar:javax.swing.JButton" style="text;html=1;align=left;verticalAlign=middle;whiteSpace=wrap;rounded=0;" vertex="1" parent="HsIJHGmiZWipwO8VZicZ-1">
          <mxGeometry y="50" width="380" height="20" as="geometry" />
        </mxCell>
        <mxCell id="HsIJHGmiZWipwO8VZicZ-17" value="-&amp;nbsp;&lt;span style=&quot;text-align: center; text-wrap: nowrap;&quot;&gt;JTFCurso:&amp;nbsp;&lt;/span&gt;&lt;span style=&quot;text-align: center; text-wrap: nowrap;&quot;&gt;javax.swing.JTextField&lt;/span&gt;" style="text;html=1;align=left;verticalAlign=middle;whiteSpace=wrap;rounded=0;" vertex="1" parent="HsIJHGmiZWipwO8VZicZ-1">
          <mxGeometry y="70" width="380" height="20" as="geometry" />
        </mxCell>
        <mxCell id="HsIJHGmiZWipwO8VZicZ-18" value="-&amp;nbsp;&lt;span style=&quot;text-align: center; text-wrap: nowrap;&quot;&gt;JTFFase:&lt;/span&gt;&lt;span style=&quot;text-align: center; text-wrap: nowrap; background-color: initial;&quot;&gt;&amp;nbsp;javax.swing.JTextField&lt;/span&gt;" style="text;html=1;align=left;verticalAlign=middle;whiteSpace=wrap;rounded=0;" vertex="1" parent="HsIJHGmiZWipwO8VZicZ-1">
          <mxGeometry y="90" width="380" height="20" as="geometry" />
        </mxCell>
        <mxCell id="HsIJHGmiZWipwO8VZicZ-19" value="-&amp;nbsp;&lt;span style=&quot;text-align: center; text-wrap: nowrap;&quot;&gt;JTFIdade: javax.swing.JTextField&lt;/span&gt;" style="text;html=1;align=left;verticalAlign=middle;whiteSpace=wrap;rounded=0;" vertex="1" parent="HsIJHGmiZWipwO8VZicZ-1">
          <mxGeometry y="110" width="380" height="20" as="geometry" />
        </mxCell>
        <mxCell id="HsIJHGmiZWipwO8VZicZ-20" value="- JTFNome: javax.swing.jTextField" style="text;html=1;align=left;verticalAlign=middle;whiteSpace=wrap;rounded=0;" vertex="1" parent="HsIJHGmiZWipwO8VZicZ-1">
          <mxGeometry y="130" width="380" height="20" as="geometry" />
        </mxCell>
        <mxCell id="HsIJHGmiZWipwO8VZicZ-21" value="- jLabel1: javax.swing.jLabel" style="text;html=1;align=left;verticalAlign=middle;whiteSpace=wrap;rounded=0;" vertex="1" parent="HsIJHGmiZWipwO8VZicZ-1">
          <mxGeometry y="150" width="380" height="20" as="geometry" />
        </mxCell>
        <mxCell id="HsIJHGmiZWipwO8VZicZ-22" value="- jLabel2: javax.swing.jLabel" style="text;html=1;align=left;verticalAlign=middle;whiteSpace=wrap;rounded=0;" vertex="1" parent="HsIJHGmiZWipwO8VZicZ-1">
          <mxGeometry y="170" width="380" height="20" as="geometry" />
        </mxCell>
        <mxCell id="HsIJHGmiZWipwO8VZicZ-23" value="- jLabel3: javax.swing.jLabel" style="text;html=1;align=left;verticalAlign=middle;whiteSpace=wrap;rounded=0;" vertex="1" parent="HsIJHGmiZWipwO8VZicZ-1">
          <mxGeometry y="190" width="380" height="20" as="geometry" />
        </mxCell>
        <mxCell id="HsIJHGmiZWipwO8VZicZ-24" value="- jLabel4: javax.swing.jLabel" style="text;html=1;align=left;verticalAlign=middle;whiteSpace=wrap;rounded=0;" vertex="1" parent="HsIJHGmiZWipwO8VZicZ-1">
          <mxGeometry y="210" width="380" height="20" as="geometry" />
        </mxCell>
        <mxCell id="HsIJHGmiZWipwO8VZicZ-5" value="" style="line;html=1;strokeWidth=1;align=left;verticalAlign=middle;spacingTop=-1;spacingLeft=3;spacingRight=3;rotatable=0;labelPosition=right;points=[];portConstraint=eastwest;" vertex="1" parent="HsIJHGmiZWipwO8VZicZ-1">
          <mxGeometry y="230" width="380" height="8" as="geometry" />
        </mxCell>
        <mxCell id="HsIJHGmiZWipwO8VZicZ-8" value="&amp;nbsp;-&amp;nbsp;FrmCadastroA.luno()" style="text;html=1;align=left;verticalAlign=middle;whiteSpace=wrap;rounded=0;" vertex="1" parent="HsIJHGmiZWipwO8VZicZ-1">
          <mxGeometry y="238" width="380" height="12" as="geometry" />
        </mxCell>
        <mxCell id="2k-iUdD0pXo5w5RhXO2A-25" value="&amp;nbsp;-&amp;nbsp;initComponents(): void" style="text;html=1;align=left;verticalAlign=middle;whiteSpace=wrap;rounded=0;" vertex="1" parent="HsIJHGmiZWipwO8VZicZ-1">
          <mxGeometry y="250" width="380" height="20" as="geometry" />
        </mxCell>
        <mxCell id="HsIJHGmiZWipwO8VZicZ-12" value="&amp;nbsp;-&amp;nbsp;JBCadastrarActionPerformed(java.awt.event.ActionEvent evt): void" style="text;html=1;align=left;verticalAlign=middle;whiteSpace=wrap;rounded=0;" vertex="1" parent="HsIJHGmiZWipwO8VZicZ-1">
          <mxGeometry y="270" width="380" height="20" as="geometry" />
        </mxCell>
        <mxCell id="2k-iUdD0pXo5w5RhXO2A-9" value="&amp;nbsp;-&amp;nbsp;JBCancelarActionPerformed(java.awt.event.ActionEvent evt): void" style="text;html=1;align=left;verticalAlign=middle;whiteSpace=wrap;rounded=0;" vertex="1" parent="HsIJHGmiZWipwO8VZicZ-1">
          <mxGeometry y="290" width="380" height="20" as="geometry" />
        </mxCell>
        <mxCell id="q2CsNEJn-uZk5zSm3FEL-23" value="Mensagem" style="swimlane;fontStyle=0;align=center;verticalAlign=top;childLayout=stackLayout;horizontal=1;startSize=26;horizontalStack=0;resizeParent=1;resizeLast=0;collapsible=1;marginBottom=0;rounded=0;shadow=0;strokeWidth=1;" vertex="1" parent="1">
          <mxGeometry x="700" y="970" width="160" height="56" as="geometry">
            <mxRectangle x="230" y="140" width="160" height="26" as="alternateBounds" />
          </mxGeometry>
        </mxCell>
        <mxCell id="q2CsNEJn-uZk5zSm3FEL-29" value="+ Mensagem(String)" style="text;html=1;align=left;verticalAlign=middle;whiteSpace=wrap;rounded=0;" vertex="1" parent="q2CsNEJn-uZk5zSm3FEL-23">
          <mxGeometry y="26" width="160" height="30" as="geometry" />
        </mxCell>
        <mxCell id="mx12emGFuMttaRF26NnB-30" value="&lt;div style=&quot;text-align: left;&quot;&gt;&lt;span style=&quot;background-color: initial;&quot;&gt;FrmMenuPrincipal&lt;/span&gt;&lt;/div&gt;" style="swimlane;fontStyle=1;align=center;verticalAlign=top;childLayout=stackLayout;horizontal=1;startSize=26;horizontalStack=0;resizeParent=1;resizeParentMax=0;resizeLast=0;collapsible=1;marginBottom=0;whiteSpace=wrap;html=1;" vertex="1" parent="1">
          <mxGeometry x="350" y="184" width="450" height="320" as="geometry" />
        </mxCell>
        <mxCell id="mx12emGFuMttaRF26NnB-31" value="- jMenuArquivo: javax.swing.JMenu&amp;nbsp;" style="text;strokeColor=none;fillColor=none;align=left;verticalAlign=top;spacingLeft=4;spacingRight=4;overflow=hidden;rotatable=0;points=[[0,0.5],[1,0.5]];portConstraint=eastwest;whiteSpace=wrap;html=1;" vertex="1" parent="mx12emGFuMttaRF26NnB-30">
          <mxGeometry y="26" width="450" height="24" as="geometry" />
        </mxCell>
        <mxCell id="2k-iUdD0pXo5w5RhXO2A-31" value="- jMenuBar1: javax.swing.JMenuBar" style="text;strokeColor=none;fillColor=none;align=left;verticalAlign=top;spacingLeft=4;spacingRight=4;overflow=hidden;rotatable=0;points=[[0,0.5],[1,0.5]];portConstraint=eastwest;whiteSpace=wrap;html=1;" vertex="1" parent="mx12emGFuMttaRF26NnB-30">
          <mxGeometry y="50" width="450" height="24" as="geometry" />
        </mxCell>
        <mxCell id="2k-iUdD0pXo5w5RhXO2A-32" value="- jMenuItemGerenciarAlunos: javax.swing.JMenuItem" style="text;strokeColor=none;fillColor=none;align=left;verticalAlign=top;spacingLeft=4;spacingRight=4;overflow=hidden;rotatable=0;points=[[0,0.5],[1,0.5]];portConstraint=eastwest;whiteSpace=wrap;html=1;" vertex="1" parent="mx12emGFuMttaRF26NnB-30">
          <mxGeometry y="74" width="450" height="24" as="geometry" />
        </mxCell>
        <mxCell id="2k-iUdD0pXo5w5RhXO2A-35" value="- jMenuItemGerenciarAlunos: javax.swing.JMenuItem" style="text;strokeColor=none;fillColor=none;align=left;verticalAlign=top;spacingLeft=4;spacingRight=4;overflow=hidden;rotatable=0;points=[[0,0.5],[1,0.5]];portConstraint=eastwest;whiteSpace=wrap;html=1;" vertex="1" parent="mx12emGFuMttaRF26NnB-30">
          <mxGeometry y="98" width="450" height="24" as="geometry" />
        </mxCell>
        <mxCell id="mx12emGFuMttaRF26NnB-52" value="- jMenuItemNovoAluno: javax.swing.JMenuItem" style="text;strokeColor=none;fillColor=none;align=left;verticalAlign=top;spacingLeft=4;spacingRight=4;overflow=hidden;rotatable=0;points=[[0,0.5],[1,0.5]];portConstraint=eastwest;whiteSpace=wrap;html=1;" vertex="1" parent="mx12emGFuMttaRF26NnB-30">
          <mxGeometry y="122" width="450" height="20" as="geometry" />
        </mxCell>
        <mxCell id="2k-iUdD0pXo5w5RhXO2A-34" value="- jMenuItemSair: javax.swing.JMenuItem&amp;nbsp;" style="text;strokeColor=none;fillColor=none;align=left;verticalAlign=top;spacingLeft=4;spacingRight=4;overflow=hidden;rotatable=0;points=[[0,0.5],[1,0.5]];portConstraint=eastwest;whiteSpace=wrap;html=1;" vertex="1" parent="mx12emGFuMttaRF26NnB-30">
          <mxGeometry y="142" width="450" height="22" as="geometry" />
        </mxCell>
        <mxCell id="2k-iUdD0pXo5w5RhXO2A-33" value="- jMenuSobre: javax.swing.JMenu&amp;nbsp;" style="text;strokeColor=none;fillColor=none;align=left;verticalAlign=top;spacingLeft=4;spacingRight=4;overflow=hidden;rotatable=0;points=[[0,0.5],[1,0.5]];portConstraint=eastwest;whiteSpace=wrap;html=1;" vertex="1" parent="mx12emGFuMttaRF26NnB-30">
          <mxGeometry y="164" width="450" height="18" as="geometry" />
        </mxCell>
        <mxCell id="mx12emGFuMttaRF26NnB-32" value="" style="line;strokeWidth=1;fillColor=none;align=left;verticalAlign=middle;spacingTop=-1;spacingLeft=3;spacingRight=3;rotatable=0;labelPosition=right;points=[];portConstraint=eastwest;strokeColor=inherit;" vertex="1" parent="mx12emGFuMttaRF26NnB-30">
          <mxGeometry y="182" width="450" height="8" as="geometry" />
        </mxCell>
        <mxCell id="mx12emGFuMttaRF26NnB-54" value="+&amp;nbsp;FrmMenuPrincipal()" style="text;strokeColor=none;fillColor=none;align=left;verticalAlign=top;spacingLeft=4;spacingRight=4;overflow=hidden;rotatable=0;points=[[0,0.5],[1,0.5]];portConstraint=eastwest;whiteSpace=wrap;html=1;" vertex="1" parent="mx12emGFuMttaRF26NnB-30">
          <mxGeometry y="190" width="450" height="26" as="geometry" />
        </mxCell>
        <mxCell id="mx12emGFuMttaRF26NnB-35" value="+ initComponents(): void" style="text;strokeColor=none;fillColor=none;align=left;verticalAlign=top;spacingLeft=4;spacingRight=4;overflow=hidden;rotatable=0;points=[[0,0.5],[1,0.5]];portConstraint=eastwest;whiteSpace=wrap;html=1;" vertex="1" parent="mx12emGFuMttaRF26NnB-30">
          <mxGeometry y="216" width="450" height="26" as="geometry" />
        </mxCell>
        <mxCell id="mx12emGFuMttaRF26NnB-40" value="+ jMenuItemNovoAlunoActionPerformed(java.awt.event.ActionEvent): void" style="text;strokeColor=none;fillColor=none;align=left;verticalAlign=top;spacingLeft=4;spacingRight=4;overflow=hidden;rotatable=0;points=[[0,0.5],[1,0.5]];portConstraint=eastwest;whiteSpace=wrap;html=1;" vertex="1" parent="mx12emGFuMttaRF26NnB-30">
          <mxGeometry y="242" width="450" height="26" as="geometry" />
        </mxCell>
        <mxCell id="mx12emGFuMttaRF26NnB-42" value="+ jMenuItemSairActionPerformed(java.awt.event.ActionEvent): void" style="text;strokeColor=none;fillColor=none;align=left;verticalAlign=top;spacingLeft=4;spacingRight=4;overflow=hidden;rotatable=0;points=[[0,0.5],[1,0.5]];portConstraint=eastwest;whiteSpace=wrap;html=1;" vertex="1" parent="mx12emGFuMttaRF26NnB-30">
          <mxGeometry y="268" width="450" height="26" as="geometry" />
        </mxCell>
        <mxCell id="mx12emGFuMttaRF26NnB-44" value="+ jMenuItemGerenciarAlunosActionPerformed(java.awt.event.ActionEvent): void" style="text;strokeColor=none;fillColor=none;align=left;verticalAlign=top;spacingLeft=4;spacingRight=4;overflow=hidden;rotatable=0;points=[[0,0.5],[1,0.5]];portConstraint=eastwest;whiteSpace=wrap;html=1;" vertex="1" parent="mx12emGFuMttaRF26NnB-30">
          <mxGeometry y="294" width="450" height="26" as="geometry" />
        </mxCell>
        <mxCell id="mx12emGFuMttaRF26NnB-55" value="" style="endArrow=diamondThin;endFill=1;endSize=24;html=1;rounded=0;entryX=0.5;entryY=1;entryDx=0;entryDy=0;exitX=1.002;exitY=0.186;exitDx=0;exitDy=0;exitPerimeter=0;" edge="1" parent="1" source="mx12emGFuMttaRF26NnB-16" target="HsIJHGmiZWipwO8VZicZ-1">
          <mxGeometry width="160" relative="1" as="geometry">
            <mxPoint x="410" y="1100" as="sourcePoint" />
            <mxPoint x="650" y="820" as="targetPoint" />
            <Array as="points">
              <mxPoint x="700" y="1080" />
              <mxPoint x="1010" y="1080" />
            </Array>
          </mxGeometry>
        </mxCell>
        <mxCell id="2k-iUdD0pXo5w5RhXO2A-20" value="Manipula&lt;div&gt;&lt;br&gt;&lt;/div&gt;" style="edgeLabel;html=1;align=center;verticalAlign=middle;resizable=0;points=[];" connectable="0" vertex="1" parent="mx12emGFuMttaRF26NnB-55">
          <mxGeometry x="0.2542" relative="1" as="geometry">
            <mxPoint x="37" y="22" as="offset" />
          </mxGeometry>
        </mxCell>
        <mxCell id="HsIJHGmiZWipwO8VZicZ-4" value="- objetoaluno" style="text;html=1;align=left;verticalAlign=middle;whiteSpace=wrap;rounded=0;" vertex="1" parent="1">
          <mxGeometry x="407.5" y="1080" width="95" height="30" as="geometry" />
        </mxCell>
        <mxCell id="mx12emGFuMttaRF26NnB-56" value="1" style="text;align=center;fontStyle=1;verticalAlign=middle;spacingLeft=3;spacingRight=3;strokeColor=none;rotatable=0;points=[[0,0.5],[1,0.5]];portConstraint=eastwest;html=1;" vertex="1" parent="1">
          <mxGeometry x="380" y="1060" width="80" height="26" as="geometry" />
        </mxCell>
        <mxCell id="mx12emGFuMttaRF26NnB-58" value="" style="endArrow=diamondThin;endFill=1;endSize=24;html=1;rounded=0;exitX=0.998;exitY=0.216;exitDx=0;exitDy=0;exitPerimeter=0;" edge="1" parent="1" source="mx12emGFuMttaRF26NnB-9" target="10Aqo5CzHwKTAus0qvX2-3">
          <mxGeometry width="160" relative="1" as="geometry">
            <mxPoint x="650" y="940" as="sourcePoint" />
            <mxPoint x="600.0000000000002" y="840" as="targetPoint" />
            <Array as="points">
              <mxPoint x="595" y="1020" />
            </Array>
          </mxGeometry>
        </mxCell>
        <mxCell id="2k-iUdD0pXo5w5RhXO2A-19" value="Manipula&lt;div&gt;&lt;br&gt;&lt;/div&gt;" style="edgeLabel;html=1;align=center;verticalAlign=middle;resizable=0;points=[];" connectable="0" vertex="1" parent="mx12emGFuMttaRF26NnB-58">
          <mxGeometry x="0.2906" y="-2" relative="1" as="geometry">
            <mxPoint x="-7" y="52" as="offset" />
          </mxGeometry>
        </mxCell>
        <mxCell id="mx12emGFuMttaRF26NnB-59" value="1" style="text;align=center;fontStyle=1;verticalAlign=middle;spacingLeft=3;spacingRight=3;strokeColor=none;rotatable=0;points=[[0,0.5],[1,0.5]];portConstraint=eastwest;html=1;" vertex="1" parent="1">
          <mxGeometry x="380" y="1000" width="80" height="26" as="geometry" />
        </mxCell>
        <mxCell id="mx12emGFuMttaRF26NnB-60" value="- objetoaluno" style="text;html=1;align=left;verticalAlign=middle;whiteSpace=wrap;rounded=0;" vertex="1" parent="1">
          <mxGeometry x="407.5" y="1020" width="95" height="30" as="geometry" />
        </mxCell>
        <mxCell id="mx12emGFuMttaRF26NnB-63" value="" style="endArrow=open;endSize=12;dashed=1;html=1;rounded=0;exitX=0.478;exitY=1.087;exitDx=0;exitDy=0;exitPerimeter=0;entryX=0.384;entryY=0;entryDx=0;entryDy=0;entryPerimeter=0;" edge="1" parent="1" source="mx12emGFuMttaRF26NnB-44">
          <mxGeometry x="-0.4953" y="-95" width="160" relative="1" as="geometry">
            <mxPoint x="530" y="460" as="sourcePoint" />
            <mxPoint x="565.2" y="560" as="targetPoint" />
            <mxPoint as="offset" />
          </mxGeometry>
        </mxCell>
        <mxCell id="mx12emGFuMttaRF26NnB-64" value="" style="endArrow=open;endSize=12;dashed=1;html=1;rounded=0;exitX=0.703;exitY=1.038;exitDx=0;exitDy=0;exitPerimeter=0;" edge="1" parent="1" source="mx12emGFuMttaRF26NnB-44">
          <mxGeometry x="0.3139" y="80" width="160" relative="1" as="geometry">
            <mxPoint x="530" y="460" as="sourcePoint" />
            <mxPoint x="950" y="560" as="targetPoint" />
            <Array as="points">
              <mxPoint x="666" y="530" />
              <mxPoint x="950" y="530" />
            </Array>
            <mxPoint as="offset" />
          </mxGeometry>
        </mxCell>
        <mxCell id="10Aqo5CzHwKTAus0qvX2-3" value="&lt;span style=&quot;font-weight: 400; text-wrap: nowrap;&quot;&gt;FrmGerenciaAluno&amp;nbsp;&lt;/span&gt;" style="swimlane;fontStyle=1;align=center;verticalAlign=top;childLayout=stackLayout;horizontal=1;startSize=26;horizontalStack=0;resizeParent=1;resizeParentMax=0;resizeLast=0;collapsible=1;marginBottom=0;whiteSpace=wrap;html=1;" vertex="1" parent="1">
          <mxGeometry x="410" y="560" width="370" height="300" as="geometry" />
        </mxCell>
        <mxCell id="10Aqo5CzHwKTAus0qvX2-4" value="- JBCancelar: javax.swing.JButton" style="text;strokeColor=none;fillColor=none;align=left;verticalAlign=top;spacingLeft=4;spacingRight=4;overflow=hidden;rotatable=0;points=[[0,0.5],[1,0.5]];portConstraint=eastwest;whiteSpace=wrap;html=1;" vertex="1" parent="10Aqo5CzHwKTAus0qvX2-3">
          <mxGeometry y="26" width="370" height="20" as="geometry" />
        </mxCell>
        <mxCell id="10Aqo5CzHwKTAus0qvX2-9" value="- JBAlterar: javax.swing.JButton" style="text;strokeColor=none;fillColor=none;align=left;verticalAlign=top;spacingLeft=4;spacingRight=4;overflow=hidden;rotatable=0;points=[[0,0.5],[1,0.5]];portConstraint=eastwest;whiteSpace=wrap;html=1;" vertex="1" parent="10Aqo5CzHwKTAus0qvX2-3">
          <mxGeometry y="46" width="370" height="20" as="geometry" />
        </mxCell>
        <mxCell id="10Aqo5CzHwKTAus0qvX2-10" value="- J&lt;span style=&quot;background-color: initial;&quot;&gt;BApagar: javax.swing.JButton&lt;/span&gt;" style="text;strokeColor=none;fillColor=none;align=left;verticalAlign=top;spacingLeft=4;spacingRight=4;overflow=hidden;rotatable=0;points=[[0,0.5],[1,0.5]];portConstraint=eastwest;whiteSpace=wrap;html=1;" vertex="1" parent="10Aqo5CzHwKTAus0qvX2-3">
          <mxGeometry y="66" width="370" height="24" as="geometry" />
        </mxCell>
        <mxCell id="10Aqo5CzHwKTAus0qvX2-12" value="&lt;div&gt;-&amp;nbsp;&lt;span style=&quot;background-color: initial;&quot;&gt;JTFNome: javax.swing.JTextField&lt;/span&gt;&lt;/div&gt;" style="text;strokeColor=none;fillColor=none;align=left;verticalAlign=top;spacingLeft=4;spacingRight=4;overflow=hidden;rotatable=0;points=[[0,0.5],[1,0.5]];portConstraint=eastwest;whiteSpace=wrap;html=1;" vertex="1" parent="10Aqo5CzHwKTAus0qvX2-3">
          <mxGeometry y="90" width="370" height="20" as="geometry" />
        </mxCell>
        <mxCell id="10Aqo5CzHwKTAus0qvX2-14" value="&lt;div&gt;-&amp;nbsp;&lt;span style=&quot;background-color: initial;&quot;&gt;JTFFase: javax.swing.JTextField&lt;/span&gt;&lt;/div&gt;" style="text;strokeColor=none;fillColor=none;align=left;verticalAlign=top;spacingLeft=4;spacingRight=4;overflow=hidden;rotatable=0;points=[[0,0.5],[1,0.5]];portConstraint=eastwest;whiteSpace=wrap;html=1;" vertex="1" parent="10Aqo5CzHwKTAus0qvX2-3">
          <mxGeometry y="110" width="370" height="22" as="geometry" />
        </mxCell>
        <mxCell id="10Aqo5CzHwKTAus0qvX2-16" value="&lt;div&gt;-&amp;nbsp;&lt;span style=&quot;background-color: initial;&quot;&gt;JTFIdade:&amp;nbsp;javax.swing.JTextField&lt;/span&gt;&lt;/div&gt;" style="text;strokeColor=none;fillColor=none;align=left;verticalAlign=top;spacingLeft=4;spacingRight=4;overflow=hidden;rotatable=0;points=[[0,0.5],[1,0.5]];portConstraint=eastwest;whiteSpace=wrap;html=1;" vertex="1" parent="10Aqo5CzHwKTAus0qvX2-3">
          <mxGeometry y="132" width="370" height="20" as="geometry" />
        </mxCell>
        <mxCell id="10Aqo5CzHwKTAus0qvX2-19" value="&lt;div&gt;-&amp;nbsp;&lt;span style=&quot;background-color: initial;&quot;&gt;JTFCurso: javax.swing.JTextField&lt;/span&gt;&lt;/div&gt;" style="text;strokeColor=none;fillColor=none;align=left;verticalAlign=top;spacingLeft=4;spacingRight=4;overflow=hidden;rotatable=0;points=[[0,0.5],[1,0.5]];portConstraint=eastwest;whiteSpace=wrap;html=1;" vertex="1" parent="10Aqo5CzHwKTAus0qvX2-3">
          <mxGeometry y="152" width="370" height="20" as="geometry" />
        </mxCell>
        <mxCell id="10Aqo5CzHwKTAus0qvX2-20" value="&lt;div&gt;-&amp;nbsp;&lt;span style=&quot;background-color: initial;&quot;&gt;JTableAlunos: javax.swing.JTable&lt;/span&gt;&lt;/div&gt;" style="text;strokeColor=none;fillColor=none;align=left;verticalAlign=top;spacingLeft=4;spacingRight=4;overflow=hidden;rotatable=0;points=[[0,0.5],[1,0.5]];portConstraint=eastwest;whiteSpace=wrap;html=1;" vertex="1" parent="10Aqo5CzHwKTAus0qvX2-3">
          <mxGeometry y="172" width="370" height="20" as="geometry" />
        </mxCell>
        <mxCell id="10Aqo5CzHwKTAus0qvX2-5" value="" style="line;strokeWidth=1;fillColor=none;align=left;verticalAlign=middle;spacingTop=-1;spacingLeft=3;spacingRight=3;rotatable=0;labelPosition=right;points=[];portConstraint=eastwest;strokeColor=inherit;" vertex="1" parent="10Aqo5CzHwKTAus0qvX2-3">
          <mxGeometry y="192" width="370" height="8" as="geometry" />
        </mxCell>
        <mxCell id="2k-iUdD0pXo5w5RhXO2A-28" value="&amp;nbsp;+&amp;nbsp;&amp;nbsp;&lt;span style=&quot;text-wrap: nowrap; text-align: center;&quot;&gt;FrmGerenciaAluno()&lt;/span&gt;" style="text;html=1;align=left;verticalAlign=middle;whiteSpace=wrap;rounded=0;" vertex="1" parent="10Aqo5CzHwKTAus0qvX2-3">
          <mxGeometry y="200" width="370" height="20" as="geometry" />
        </mxCell>
        <mxCell id="2k-iUdD0pXo5w5RhXO2A-29" value="&amp;nbsp;-&amp;nbsp;&lt;span style=&quot;text-wrap: nowrap;&quot;&gt;initComponents(): void&amp;nbsp;&lt;/span&gt;" style="text;html=1;align=left;verticalAlign=middle;whiteSpace=wrap;rounded=0;" vertex="1" parent="10Aqo5CzHwKTAus0qvX2-3">
          <mxGeometry y="220" width="370" height="20" as="geometry" />
        </mxCell>
        <mxCell id="2k-iUdD0pXo5w5RhXO2A-10" value="&amp;nbsp;-&amp;nbsp;JBAlterarActionPerformed(java.awt.event.ActionEvent evt): void" style="text;html=1;align=left;verticalAlign=middle;whiteSpace=wrap;rounded=0;" vertex="1" parent="10Aqo5CzHwKTAus0qvX2-3">
          <mxGeometry y="240" width="370" height="20" as="geometry" />
        </mxCell>
        <mxCell id="2k-iUdD0pXo5w5RhXO2A-11" value="&amp;nbsp;-&amp;nbsp;JBCancelarActionPerformed(java.awt.event.ActionEvent evt): void" style="text;html=1;align=left;verticalAlign=middle;whiteSpace=wrap;rounded=0;" vertex="1" parent="10Aqo5CzHwKTAus0qvX2-3">
          <mxGeometry y="260" width="370" height="20" as="geometry" />
        </mxCell>
        <mxCell id="2k-iUdD0pXo5w5RhXO2A-30" value="&amp;nbsp;+&amp;nbsp;&lt;span style=&quot;text-wrap: nowrap;&quot;&gt;carregaTabela(): void&amp;nbsp;&lt;/span&gt;" style="text;html=1;align=left;verticalAlign=middle;whiteSpace=wrap;rounded=0;" vertex="1" parent="10Aqo5CzHwKTAus0qvX2-3">
          <mxGeometry y="280" width="370" height="20" as="geometry" />
        </mxCell>
        <mxCell id="10Aqo5CzHwKTAus0qvX2-23" value="" style="endArrow=open;endSize=12;dashed=1;html=1;rounded=0;exitX=0.999;exitY=0.29;exitDx=0;exitDy=0;exitPerimeter=0;" edge="1" parent="1" target="t3YhmGqD62jpCfQVTjOp-2" source="mx12emGFuMttaRF26NnB-24">
          <mxGeometry width="160" relative="1" as="geometry">
            <mxPoint x="407.5" y="1260" as="sourcePoint" />
            <mxPoint x="567.5" y="1260" as="targetPoint" />
          </mxGeometry>
        </mxCell>
        <mxCell id="2k-iUdD0pXo5w5RhXO2A-1" value="javax.swing.JFrame" style="swimlane;fontStyle=1;align=center;verticalAlign=top;childLayout=stackLayout;horizontal=1;startSize=26;horizontalStack=0;resizeParent=1;resizeParentMax=0;resizeLast=0;collapsible=1;marginBottom=0;whiteSpace=wrap;html=1;" vertex="1" parent="1">
          <mxGeometry x="930" y="327" width="160" height="34" as="geometry" />
        </mxCell>
        <mxCell id="2k-iUdD0pXo5w5RhXO2A-3" value="" style="line;strokeWidth=1;fillColor=none;align=left;verticalAlign=middle;spacingTop=-1;spacingLeft=3;spacingRight=3;rotatable=0;labelPosition=right;points=[];portConstraint=eastwest;strokeColor=inherit;" vertex="1" parent="2k-iUdD0pXo5w5RhXO2A-1">
          <mxGeometry y="26" width="160" height="8" as="geometry" />
        </mxCell>
        <mxCell id="2k-iUdD0pXo5w5RhXO2A-5" value="" style="endArrow=block;endSize=16;endFill=0;html=1;rounded=0;" edge="1" parent="1" source="mx12emGFuMttaRF26NnB-30" target="2k-iUdD0pXo5w5RhXO2A-1">
          <mxGeometry width="160" relative="1" as="geometry">
            <mxPoint x="410" y="290" as="sourcePoint" />
            <mxPoint x="570" y="290" as="targetPoint" />
          </mxGeometry>
        </mxCell>
        <mxCell id="2k-iUdD0pXo5w5RhXO2A-7" value="" style="endArrow=block;endSize=16;endFill=0;html=1;rounded=0;" edge="1" parent="1" source="HsIJHGmiZWipwO8VZicZ-1" target="2k-iUdD0pXo5w5RhXO2A-1">
          <mxGeometry width="160" relative="1" as="geometry">
            <mxPoint x="670" y="290" as="sourcePoint" />
            <mxPoint x="830" y="290" as="targetPoint" />
          </mxGeometry>
        </mxCell>
        <mxCell id="2k-iUdD0pXo5w5RhXO2A-8" value="" style="endArrow=block;endSize=16;endFill=0;html=1;rounded=0;exitX=0.839;exitY=0.003;exitDx=0;exitDy=0;exitPerimeter=0;" edge="1" parent="1" source="10Aqo5CzHwKTAus0qvX2-3" target="2k-iUdD0pXo5w5RhXO2A-1">
          <mxGeometry width="160" relative="1" as="geometry">
            <mxPoint x="670" y="290" as="sourcePoint" />
            <mxPoint x="830" y="290" as="targetPoint" />
            <Array as="points">
              <mxPoint x="890" y="500" />
            </Array>
          </mxGeometry>
        </mxCell>
        <mxCell id="2k-iUdD0pXo5w5RhXO2A-14" value="" style="endArrow=open;endSize=12;dashed=1;html=1;rounded=0;" edge="1" parent="1" source="10Aqo5CzHwKTAus0qvX2-3" target="q2CsNEJn-uZk5zSm3FEL-23">
          <mxGeometry width="160" relative="1" as="geometry">
            <mxPoint x="640" y="980" as="sourcePoint" />
            <mxPoint x="720" y="1060" as="targetPoint" />
          </mxGeometry>
        </mxCell>
        <mxCell id="2k-iUdD0pXo5w5RhXO2A-16" value="" style="endArrow=open;endSize=12;dashed=1;html=1;rounded=0;" edge="1" parent="1" source="HsIJHGmiZWipwO8VZicZ-1" target="q2CsNEJn-uZk5zSm3FEL-23">
          <mxGeometry width="160" relative="1" as="geometry">
            <mxPoint x="685" y="906" as="sourcePoint" />
            <mxPoint x="767" y="1076" as="targetPoint" />
          </mxGeometry>
        </mxCell>
      </root>
    </mxGraphModel>
  </diagram>
</mxfile>
